<svg width="34" height="24" viewBox="0 0 34 24" fill="none" xmlns="http://www.w3.org/2000/svg">
<path d="M6.33333 1C5.71795 2.77778 3.78974 6.33333 1 6.33333" stroke="white"/>
<path d="M1 6.23071V17.4102" stroke="white"/>
<path d="M6.33333 1C5.71795 2.77778 3.78974 6.33333 1 6.33333" stroke="white"/>
<path d="M1 17.4103V6.23079" stroke="white"/>
<path d="M6.33333 22.7435C5.71795 20.9658 3.78974 17.4102 1 17.4102" stroke="white"/>
<path d="M1 6.33337V17.5129" stroke="white"/>
<path d="M27.6667 1C28.2821 2.77778 30.2103 6.33333 33 6.33333" stroke="white"/>
<path d="M33 6.23071V17.4102" stroke="white"/>
<path d="M27.6667 1C28.2821 2.77778 30.2103 6.33333 33 6.33333" stroke="white"/>
<path d="M33 17.4103V6.23079" stroke="white"/>
<path d="M27.6667 22.7435C28.2821 20.9658 30.2103 17.4102 33 17.4102" stroke="white"/>
<path d="M33 6.33337V17.5129" stroke="white"/>
<path d="M6.33325 22.7435H27.6666" stroke="white"/>
<path d="M6.33325 1H27.6666" stroke="white"/>
<path d="M14.4305 16.24C13.7185 16.24 13.1105 16.128 12.6065 15.904C12.1025 15.672 11.6905 15.36 11.3705 14.968C11.0505 14.568 10.8145 14.112 10.6625 13.6C10.5105 13.08 10.4345 12.536 10.4345 11.968V11.272C10.4345 10.472 10.5785 9.748 10.8665 9.1C11.1545 8.452 11.5945 7.936 12.1865 7.552C12.7785 7.168 13.5265 6.976 14.4305 6.976C15.3345 6.976 16.0785 7.168 16.6625 7.552C17.2545 7.936 17.6945 8.452 17.9825 9.1C18.2705 9.748 18.4145 10.472 18.4145 11.272V11.968C18.4145 12.536 18.3385 13.08 18.1865 13.6C18.0345 14.112 17.7985 14.568 17.4785 14.968C17.1665 15.36 16.7585 15.672 16.2545 15.904C15.7505 16.128 15.1425 16.24 14.4305 16.24ZM14.4305 14.176C15.0225 14.176 15.4625 13.968 15.7505 13.552C16.0385 13.136 16.1825 12.496 16.1825 11.632C16.1825 10.712 16.0345 10.052 15.7385 9.652C15.4425 9.244 15.0065 9.04 14.4305 9.04C13.8465 9.04 13.4065 9.244 13.1105 9.652C12.8145 10.052 12.6665 10.704 12.6665 11.608C12.6665 12.48 12.8105 13.128 13.0985 13.552C13.3945 13.968 13.8385 14.176 14.4305 14.176ZM21.0252 16V8.776L21.5532 9.184H19.3932V7.24H23.2572V16H21.0252Z" fill="white"/>
<path d="M27.5 1V23" stroke="white"/>
<path d="M32.5 17C31.3 17 29 19.6667 28 21V2C28.4 4.4 31.1667 6 32.5 6.5V17Z" fill="white"/>
</svg>
